<?xml version="1.0" standalone="no"?>
<!DOCTYPE svg PUBLIC "-//W3C//DTD SVG 20010904//EN"
 "http://www.w3.org/TR/2001/REC-SVG-20010904/DTD/svg10.dtd">
<svg version="1.0" xmlns="http://www.w3.org/2000/svg"
 width="300.000000pt" height="43.000000pt" viewBox="0 0 300.000000 43.000000"
 preserveAspectRatio="xMidYMid meet">
<metadata>
Created by potrace 1.10, written by Peter Selinger 2001-2011
</metadata>
<g transform="translate(0.000000,43.000000) scale(0.100000,-0.100000)"
fill="#000000" stroke="none">
<path d="M147 303 c-4 -3 -7 -12 -7 -20 0 -9 17 -13 60 -13 l60 0 0 -65 c0
-75 -20 -105 -70 -105 -30 0 -72 31 -82 60 -5 17 -38 6 -38 -13 0 -45 83 -93
139 -81 75 16 91 43 91 153 0 63 -3 80 -16 85 -21 8 -129 8 -137 -1z"/>
<path d="M392 188 c3 -101 6 -123 18 -123 12 0 16 17 18 83 2 45 6 82 10 82 3
0 24 -19 45 -42 l38 -41 42 41 c24 23 46 42 50 42 4 0 7 -39 7 -86 0 -76 2
-85 18 -82 15 3 17 18 20 121 2 103 1 118 -14 124 -13 5 -32 -9 -70 -49 l-52
-56 -46 54 c-28 31 -55 54 -67 54 -19 0 -19 -6 -17 -122z"/>
<path d="M1072 188 c3 -101 6 -123 18 -123 12 0 16 18 18 90 l3 90 44 -50 45
-50 40 43 c22 23 44 42 49 42 4 0 6 -34 3 -76 -5 -78 3 -99 35 -87 10 4 13 33
13 119 0 145 -9 152 -87 71 l-53 -55 -47 54 c-26 30 -55 54 -65 54 -17 0 -18
-9 -16 -122z"/>
<path d="M1483 293 c-82 -41 -82 -167 0 -210 41 -22 128 -21 161 1 57 37 76
119 41 173 -33 50 -136 69 -202 36z m152 -48 c31 -30 32 -73 5 -108 -42 -53
-140 -42 -166 19 -15 37 -11 58 19 92 30 33 108 31 142 -3z"/>
<path d="M1756 302 c-7 -12 111 -229 129 -236 8 -3 21 -3 29 0 23 9 139 225
127 237 -19 19 -39 -3 -88 -99 l-51 -97 -40 74 c-22 41 -47 86 -56 102 -14 26
-39 36 -50 19z"/>
<path d="M2115 300 c-10 -15 4 -28 35 -32 24 -3 25 -6 28 -80 l3 -78 -30 0
c-35 0 -48 -15 -30 -36 9 -11 30 -14 83 -12 63 3 71 5 71 23 0 14 -8 21 -27
23 -28 3 -28 4 -28 83 l0 79 31 0 c24 0 30 4 27 18 -3 14 -16 17 -80 20 -49 2
-79 -1 -83 -8z"/>
<path d="M2383 304 c-9 -4 -13 -38 -13 -119 0 -94 3 -114 16 -119 24 -9 187
-7 203 3 8 5 11 16 8 25 -5 13 -23 16 -97 16 l-90 0 0 30 0 29 78 3 c60 2 77
6 77 18 0 12 -17 16 -77 18 l-78 3 0 29 0 29 93 3 c74 2 92 6 92 18 0 12 -19
15 -100 17 -55 1 -106 -1 -112 -3z"/>
<path d="M2730 303 c-32 -12 -50 -37 -50 -69 0 -44 22 -55 122 -62 82 -5 103
-17 79 -46 -24 -29 -85 -29 -178 -1 -19 6 -23 3 -23 -13 0 -28 50 -46 127 -45
77 1 116 23 121 69 5 48 -25 67 -118 73 -86 7 -100 13 -84 39 15 24 103 28
145 7 34 -18 56 -9 46 19 -11 27 -138 47 -187 29z"/>
<path d="M734 95 c-12 -30 7 -35 125 -35 117 0 145 7 134 36 -8 21 -251 20
-259 -1z"/>
</g>
</svg>
